# xmcd
#
# Track frame offsets: 
#        150
#        14208
#        28239
#        40791
#        55023
#        74568
#        93780
#        112265
#        125598
#        142107
#        162164
#        180970
#
# Disc length: 2577 seconds
#
# Revision: 4
# Processed by: cddbd v1.5.2PL0 Copyright (c) Steve Scherf et al.
# Submitted via: ExactAudioCopyFreeDBPlugin 1.0
#
DISCID=ab0a0f0c
DTITLE=Emmylou Harris - Quarter Moon In A Ten Cent Town (Remastered)
DYEAR=1978
DGENRE=Country Rock
TTITLE0=Easy from Now On
TTITLE1=Two More Bottles Of Wine
TTITLE2=To Daddy
TTITLE3=My Songbird
TTITLE4=Leaving Louisiana In The Broad Daylight
TTITLE5=Defying Gravity
TTITLE6=I Ain't Living Long Like This
TTITLE7=One Paper Kid
TTITLE8=Green Rolling Hills
TTITLE9=Burn That Candle
TTITLE10=New Cut Road (Bonus)
TTITLE11=LaCassine Special (Bonus)
EXTD=
EXTT0=
EXTT1=
EXTT2=
EXTT3=
EXTT4=
EXTT5=
EXTT6=
EXTT7=
EXTT8=
EXTT9=
EXTT10=
EXTT11=
PLAYORDER=
